<?xml version="1.0" encoding="utf-8"?>
<!-- Generator: Adobe Illustrator 26.0.2, SVG Export Plug-In . SVG Version: 6.00 Build 0)  -->
<svg version="1.1" id="Livello_1" xmlns="http://www.w3.org/2000/svg" xmlns:xlink="http://www.w3.org/1999/xlink" x="0px" y="0px"
	 viewBox="0 0 1920 230.6" style="enable-background:new 0 0 1920 230.6;" xml:space="preserve">
<style type="text/css">
	.st0{fill:#786450;}
</style>
<path class="st0" d="M0,2.1h50.6c32.2,0,58.8,13.2,58.8,46.8v0.9c0,27.8-18.6,41.4-41.7,45.9l51.5,74.6H96.5L46.4,97.2H20.5v73.2H0
	V2.1z M52,80.9c24,0,37-10.4,37-31.1v-0.9c0-22.8-14.1-30.3-37-30.3H20.5v62.3H52z"/>
<path class="st0" d="M137.2,87.3v-1.9c0-47.8,33.4-85.4,82.8-85.4s82.1,37.6,82.1,84.9v1.9c0,47.5-32.7,85.6-81.7,85.6
	C170.9,172.4,137.2,134.3,137.2,87.3z M281,86.6v-1.9c0-37.6-22.1-68.2-61-68.2c-39.1,0-61.7,28.7-61.7,68.7V87
	c0,40.7,27.1,68.5,62.1,68.5C257.9,155.5,281,127.3,281,86.6L281,86.6z"/>
<path class="st0" d="M336.3,2.1h50.6c31.3,0,54.1,10.4,54.1,43.5v0.9c0,15.3-6.1,28.9-25.4,35.5c24.5,5.9,33.7,18.4,33.7,40.2v0.9
	c0,31.8-21.7,47.1-55.3,47.1h-57.7V2.1z M386.9,75.5c24.7,0,34.1-8.9,34.1-29.6v-0.9c0-19.1-11.1-26.8-34.6-26.8h-30.1v57.4H386.9z
	 M393.5,154.3c24.5,0,35.8-10.8,35.8-31.3v-0.9c0-20.7-11.5-30.6-38.6-30.6h-34.4v62.8L393.5,154.3z"/>
<path class="st0" d="M482.7,2.1h98.1v16.7h-77.7V76h62.6v16.7h-62.6v60.9h81.9v16.7H482.7V2.1z"/>
<path class="st0" d="M615.9,2.1h50.6c32.2,0,58.8,13.2,58.8,46.8v0.9c0,27.8-18.6,41.4-41.7,45.9l51.5,74.6h-22.8l-50.1-73.2h-25.9
	v73.2h-20.5V2.1z M667.9,80.9c24,0,37-10.4,37-31.1v-0.9c0-22.8-14.1-30.3-37-30.3h-31.5v62.3H667.9z"/>
<path class="st0" d="M794.8,18.8h-49V2.1h118.4v16.7h-49v151.5h-20.5V18.8z"/>
<path class="st0" d="M920.9,2.1h26.8l57,168.2h-20.2L968,121.9h-69.4l-16.2,48.5H863L920.9,2.1z M904.2,105.6h58.4l-29.2-86.6
	L904.2,105.6z"/>
<path class="st0" d="M1086.9,119h19.8c2.6,20,10.6,36.9,44.5,36.9c21.7,0,38.4-12.7,38.4-31.8s-8.7-27.1-40.7-32.2
	c-35.3-5.4-56.2-16.5-56.2-46.3c0-25.9,22.4-45.6,54.1-45.6c33.7,0,54.6,16.5,57.9,46.3h-18.4c-4-21.2-16.2-29.9-39.5-29.9
	c-23.1,0-35.1,11.5-35.1,27.3c0,16.5,6.1,24.9,40.5,30.1c37.4,5.9,57.2,17.2,57.2,48.9c0,28.2-24.7,49.6-58.1,49.6
	C1106.2,172.4,1089.9,147.7,1086.9,119z"/>
<path class="st0" d="M1273,18.8h-49V2.1h118.4v16.7h-49v151.5H1273L1273,18.8z"/>
<path class="st0" d="M1369,108.9V2.1h20.5v104.5c0,35.3,12.5,48.9,40.5,48.9c26.8,0,42.8-10.8,42.8-52V2.1h20.5v104.2
	c0,40.9-20.5,66.1-63.8,66.1C1390.9,172.4,1369,149.9,1369,108.9z"/>
<path class="st0" d="M1534.3,2.1h44.5c57.9,0,85.2,35.8,85.2,82.6v2.1c0,46.6-26.8,83.5-85.7,83.5h-44L1534.3,2.1z M1577.8,153.6
	c43.3,0,65-25.9,65-67.1v-1.9c0-38.8-18.8-66.1-65.2-66.1h-22.8v135H1577.8z"/>
<path class="st0" d="M1699.2,2.1h20.5v168.2h-20.5V2.1z"/>
<path class="st0" d="M1755,87.3v-1.9c0-47.8,33.4-85.4,82.8-85.4s82.1,37.6,82.1,84.9v1.9c0,47.5-32.7,85.6-81.7,85.6
	C1788.7,172.4,1755,134.3,1755,87.3z M1898.8,86.6v-1.9c0-37.6-22.1-68.2-61-68.2c-39.1,0-61.7,28.7-61.7,68.7V87
	c0,40.7,27.1,68.5,62.1,68.5C1875.8,155.5,1898.8,127.3,1898.8,86.6z"/>
<g>
	<path class="st0" d="M0,196.8h8.8c11.5,0,16.9,7.1,16.9,16.4v0.4c0,9.2-5.3,16.6-17,16.6H0V196.8z M8.6,226.9
		c8.6,0,12.9-5.1,12.9-13.3v-0.4c0-7.7-3.7-13.1-12.9-13.1H4.1v26.8H8.6z"/>
	<path class="st0" d="M32.5,196.8H52v3.3H36.6v11.3H49v3.3H36.6v12.1h16.3v3.3H32.5V196.8z"/>
	<path class="st0" d="M57,220h3.9c0.5,4,2.1,7.3,8.8,7.3c4.3,0,7.6-2.5,7.6-6.3c0-3.8-1.7-5.4-8.1-6.4c-7-1.1-11.2-3.3-11.2-9.2
		c0-5.1,4.4-9.1,10.7-9.1c6.7,0,10.8,3.3,11.5,9.2h-3.6c-0.8-4.2-3.2-5.9-7.8-5.9c-4.6,0-7,2.3-7,5.4c0,3.3,1.2,5,8,6
		c7.4,1.2,11.3,3.4,11.3,9.7c0,5.6-4.9,9.9-11.5,9.9C60.8,230.6,57.6,225.7,57,220z"/>
	<path class="st0" d="M88.5,196.8h4.1v33.4h-4.1V196.8z"/>
	<path class="st0" d="M99.5,213.7v-0.4c0-9.8,6.6-17,16.2-17c6.6,0,12.6,3.1,13.6,10.6h-4.1c-0.9-5.3-4.6-7.4-9.4-7.4
		c-7.7,0-12,5.6-12,13.8v0.4c0,8.3,4.1,13.7,12,13.7c7.2,0,10.4-4.7,10.5-10.6h-9.8v-3.4h13.7v2.5c0,9.7-5.9,14.8-14.5,14.8
		C105.4,230.6,99.5,223.5,99.5,213.7z"/>
	<path class="st0" d="M137,196.8h5.3l16.3,27.6v-27.6h3.9v33.4h-4.7l-16.9-28.6v28.6H137V196.8z"/>
	<path class="st0" d="M180.5,196.8h4.2l6.8,26.9l7.8-26.9h2.9l7.8,27l6.9-27h3.8l-8.7,33.4h-3.7l-7.6-26.4l-7.8,26.4h-3.7
		L180.5,196.8z"/>
	<path class="st0" d="M226.7,196.8h4.1v33.4h-4.1V196.8z"/>
	<path class="st0" d="M246.3,200.2h-9.7v-3.3h23.5v3.3h-9.7v30.1h-4.1V200.2z"/>
	<path class="st0" d="M265.6,196.8h4.1V212h17.6v-15.1h4.1v33.4h-4.1v-14.9h-17.6v14.9h-4.1V196.8z"/>
	<path class="st0" d="M312.1,196.8h5.3l16.3,27.6v-27.6h3.9v33.4h-4.7L316,201.6v28.6h-3.9V196.8z"/>
	<path class="st0" d="M354.9,196.8h5.3l11.3,33.4h-4l-3.3-9.6h-13.8l-3.2,9.6h-3.8L354.9,196.8z M351.6,217.4h11.6l-5.8-17.2
		L351.6,217.4z"/>
	<path class="st0" d="M381,200.2h-9.7v-3.3h23.5v3.3h-9.7v30.1H381V200.2z"/>
	<path class="st0" d="M400,218v-21.2h4.1v20.7c0,7,2.5,9.7,8,9.7c5.3,0,8.5-2.1,8.5-10.3v-20.1h4.1v20.7c0,8.1-4.1,13.1-12.7,13.1
		C404.4,230.6,400,226.2,400,218z"/>
	<path class="st0" d="M432.8,196.8h10c6.4,0,11.7,2.6,11.7,9.3v0.2c0,5.5-3.7,8.2-8.3,9.1l10.2,14.8H452l-9.9-14.5h-5.1v14.5h-4.1
		V196.8z M443.2,212.5c4.8,0,7.3-2.1,7.3-6.2v-0.2c0-4.5-2.8-6-7.3-6h-6.3v12.4H443.2z"/>
	<path class="st0" d="M462.2,196.8h19.5v3.3h-15.4v11.3h12.4v3.3h-12.4v12.1h16.3v3.3h-20.3V196.8z"/>
</g>
</svg>
