<?xml version="1.0" encoding="utf-8"?>
<!-- Generator: Adobe Illustrator 26.0.2, SVG Export Plug-In . SVG Version: 6.00 Build 0)  -->
<svg version="1.1" id="Livello_1" xmlns="http://www.w3.org/2000/svg" xmlns:xlink="http://www.w3.org/1999/xlink" x="0px" y="0px"
	 viewBox="0 0 1003.3 448.2" style="enable-background:new 0 0 1003.3 448.2;" xml:space="preserve">
<style type="text/css">
	.st0{fill:#786450;}
</style>
<g>
	<path class="st0" d="M0,2.1h50.6c32.2,0,58.8,13.2,58.8,46.8v0.9c0,27.8-18.6,41.4-41.7,45.9l51.5,74.6H96.5L46.4,97.2H20.5v73.2H0
		V2.1z M52,80.9c24,0,37-10.4,37-31.1v-0.9c0-22.8-14.1-30.3-37-30.3H20.5v62.3H52z"/>
	<path class="st0" d="M137.2,87.3v-1.9C137.2,37.6,170.6,0,220,0s82.1,37.6,82.1,84.9v1.9c0,47.5-32.7,85.6-81.7,85.6
		C170.9,172.4,137.2,134.3,137.2,87.3z M281,86.6v-1.9c0-37.6-22.1-68.2-61-68.2c-39.1,0-61.7,28.7-61.7,68.7V87
		c0,40.7,27.1,68.5,62.1,68.5C257.9,155.5,281,127.3,281,86.6L281,86.6z"/>
	<path class="st0" d="M336.3,2.1h50.6c31.3,0,54.1,10.4,54.1,43.5v0.9c0,15.3-6.1,28.9-25.4,35.5c24.5,5.9,33.7,18.4,33.7,40.2v0.9
		c0,31.8-21.7,47.1-55.3,47.1h-57.7L336.3,2.1L336.3,2.1z M386.9,75.5c24.7,0,34.1-8.9,34.1-29.6V45c0-19.1-11.1-26.8-34.6-26.8
		h-30.1v57.4h30.6V75.5z M393.5,154.3c24.5,0,35.8-10.8,35.8-31.3v-0.9c0-20.7-11.5-30.6-38.6-30.6h-34.4v62.8H393.5z"/>
	<path class="st0" d="M482.7,2.1h98.1v16.7h-77.7V76h62.6v16.7h-62.6v60.9H585v16.7H482.7V2.1z"/>
	<path class="st0" d="M615.9,2.1h50.6c32.2,0,58.8,13.2,58.8,46.8v0.9c0,27.8-18.6,41.4-41.7,45.9l51.5,74.6h-22.8l-50.1-73.2h-25.9
		v73.2h-20.5V2.1H615.9z M667.9,80.9c24,0,37-10.4,37-31.1v-0.9c0-22.8-14.1-30.3-37-30.3h-31.5v62.3H667.9z"/>
	<path class="st0" d="M794.8,18.8h-49V2.1h118.4v16.7h-49v151.5h-20.5L794.8,18.8L794.8,18.8z"/>
	<path class="st0" d="M920.9,2.1h26.8l57,168.2h-20.2L968,121.9h-69.4l-16.2,48.5H863L920.9,2.1z M904.2,105.6h58.4L933.4,19
		L904.2,105.6z"/>
</g>
<g>
	<path class="st0" d="M85.9,320.9h19.8c2.6,20,10.6,36.9,44.5,36.9c21.7,0,38.4-12.7,38.4-31.8s-8.7-27.1-40.7-32.2
		c-35.3-5.4-56.2-16.5-56.2-46.3c0-25.9,22.4-45.6,54.1-45.6c33.7,0,54.6,16.5,57.9,46.3h-18.4c-4-21.2-16.2-29.9-39.5-29.9
		c-23.1,0-35.1,11.5-35.1,27.3c0,16.5,6.1,24.9,40.5,30.1c37.4,5.9,57.2,17.2,57.2,48.9c0,28.2-24.7,49.6-58.1,49.6
		C105.1,374.3,88.9,349.6,85.9,320.9z"/>
	<path class="st0" d="M271.9,220.7h-49V204h118.4v16.7h-49v151.5h-20.4V220.7z"/>
	<path class="st0" d="M367.9,310.8V204h20.5v104.5c0,35.3,12.5,48.9,40.5,48.9c26.8,0,42.8-10.8,42.8-52V204h20.5v104.2
		c0,40.9-20.5,66.1-63.8,66.1C389.9,374.3,367.9,351.8,367.9,310.8z"/>
	<path class="st0" d="M533.2,204h44.5c57.9,0,85.2,35.8,85.2,82.6v2.1c0,46.6-26.8,83.5-85.7,83.5h-44V204z M576.8,355.5
		c43.3,0,65-25.9,65-67.1v-1.9c0-38.8-18.8-66.1-65.2-66.1h-22.8v135h23V355.5z"/>
	<path class="st0" d="M698.1,204h20.5v168.2h-20.5V204z"/>
	<path class="st0" d="M753.9,289.2v-1.9c0-47.8,33.4-85.4,82.8-85.4s82.1,37.6,82.1,84.9v1.9c0,47.5-32.7,85.6-81.7,85.6
		C787.6,374.3,753.9,336.2,753.9,289.2z M897.8,288.5v-1.9c0-37.6-22.1-68.2-61-68.2c-39.1,0-61.7,28.7-61.7,68.7v1.8
		c0,40.7,27.1,68.5,62.1,68.5C874.8,357.4,897.8,329.2,897.8,288.5z"/>
</g>
<g>
	<path class="st0" d="M266.1,403.5h8.6c11.2,0,16.5,6.9,16.5,16v0.4c0,9-5.2,16.2-16.6,16.2h-8.5V403.5z M274.5,432.9
		c8.4,0,12.6-5,12.6-13v-0.4c0-7.5-3.6-12.8-12.6-12.8h-4.4v26.2H274.5z"/>
	<path class="st0" d="M297.8,403.5h19v3.2h-15v11H314v3.2h-12.1v11.8h15.9v3.2h-19.9V403.5z"/>
	<path class="st0" d="M321.8,426.1h3.8c0.5,3.9,2,7.1,8.6,7.1c4.2,0,7.4-2.4,7.4-6.1c0-3.7-1.7-5.3-7.9-6.2
		c-6.8-1.1-10.9-3.2-10.9-9c0-5,4.3-8.9,10.4-8.9c6.5,0,10.5,3.2,11.2,9h-3.5c-0.8-4.1-3.1-5.8-7.6-5.8s-6.8,2.2-6.8,5.3
		c0,3.2,1.2,4.9,7.8,5.9c7.2,1.2,11,3.3,11,9.5c0,5.5-4.8,9.7-11.2,9.7C325.5,436.5,322.3,431.7,321.8,426.1z"/>
	<path class="st0" d="M352.5,403.5h4v32.6h-4V403.5z"/>
	<path class="st0" d="M363.2,420v-0.4c0-9.6,6.4-16.6,15.8-16.6c6.4,0,12.3,3,13.3,10.3h-4c-0.9-5.2-4.5-7.2-9.2-7.2
		c-7.5,0-11.7,5.5-11.7,13.5v0.4c0,8.1,4,13.4,11.7,13.4c7,0,10.2-4.6,10.2-10.3h-9.6v-3.3h13.4v2.4c0,9.5-5.8,14.4-14.2,14.4
		C369,436.5,363.2,429.5,363.2,420z"/>
	<path class="st0" d="M399.8,403.5h5.2l15.9,26.9v-26.9h3.8v32.6h-4.6l-16.5-27.9v27.9h-3.8V403.5z"/>
	<path class="st0" d="M442.3,403.5h4.1l6.6,26.3l7.6-26.3h2.8l7.6,26.4l6.7-26.4h3.7l-8.5,32.6h-3.6l-7.4-25.8l-7.6,25.8h-3.6
		L442.3,403.5z"/>
	<path class="st0" d="M487.4,403.5h4v32.6h-4V403.5z"/>
	<path class="st0" d="M506.5,406.8h-9.5v-3.2H520v3.2h-9.5v29.4h-4V406.8z"/>
	<path class="st0" d="M525.4,403.5h4v14.8h17.2v-14.7h4v32.6h-4v-14.5h-17.2v14.5h-4V403.5z"/>
	<path class="st0" d="M570.7,403.5h5.2l15.9,26.9v-26.9h3.8v32.6H591l-16.5-27.9v27.9h-3.8V403.5z"/>
	<path class="st0" d="M612.5,403.5h5.2l11,32.6h-3.9l-3.2-9.4h-13.5l-3.1,9.4h-3.7L612.5,403.5z M609.3,423.6h11.3l-5.7-16.8
		L609.3,423.6z"/>
	<path class="st0" d="M638,406.8h-9.5v-3.2h22.9v3.2H642v29.4h-4V406.8z"/>
	<path class="st0" d="M656.5,424.2v-20.7h4v20.2c0,6.8,2.4,9.5,7.8,9.5c5.2,0,8.3-2,8.3-10.1v-19.6h4v20.2c0,7.9-4,12.8-12.4,12.8
		C660.8,436.5,656.5,432.2,656.5,424.2z"/>
	<path class="st0" d="M688.5,403.5h9.8c6.2,0,11.4,2.5,11.4,9.1v0.2c0,5.4-3.6,8-8.1,8.9l10,14.4h-4.3l-9.7-14.2h-5v14.2h-4
		L688.5,403.5L688.5,403.5z M698.7,418.8c4.7,0,7.1-2,7.1-6.1v-0.2c0-4.4-2.7-5.9-7.1-5.9h-6.1v12.1H698.7z"/>
	<path class="st0" d="M717.2,403.5h19v3.2h-15v11h12.1v3.2h-12.1v11.8h15.9v3.2h-19.8L717.2,403.5L717.2,403.5z"/>
</g>
</svg>
